<?xml version="1.0" standalone="no"?><!DOCTYPE svg PUBLIC "-//W3C//DTD SVG 1.1//EN" "http://www.w3.org/Graphics/SVG/1.1/DTD/svg11.dtd"><svg t="1551766774859" class="icon" style="" viewBox="0 0 1024 1024" version="1.1" xmlns="http://www.w3.org/2000/svg" p-id="3854" data-spm-anchor-id="a313x.7781069.0.i24" xmlns:xlink="http://www.w3.org/1999/xlink" width="16" height="16"><defs><style type="text/css"></style></defs><path d="M638.907733 117.333333H526.933333V384h156.471467zM484.266667 117.333333H396.266667L328.6784 384H484.266667z" fill="#fff" p-id="3855"></path><path d="M934.4 349.866667a8.448 8.448 0 0 0-0.456533-2.6368 8.482133 8.482133 0 0 0-1.122134-4.757334L819.2 145.6768v-0.110933l-13.832533-23.9616a8.5504 8.5504 0 0 0-7.3984-4.270934h-110.715734L738.4576 384h152.955733c-3.264 39.4112-36.224 70.4-76.48 70.4s-73.216-30.9888-76.475733-70.4h-55.0528c-3.264 39.4112-37.282133 70.4-77.538133 70.4s-75.6736-30.9888-78.933334-70.4h-42.666666c-3.259733 39.4112-38.6816 70.4-78.933334 70.4S331.938133 423.4112 328.6784 384H277.0816c-4.2496 38.395733-37.021867 68.266667-76.552533 68.266667s-72.046933-29.870933-76.296534-68.266667h152.849067l66.013867-266.666667H219.114667a8.533333 8.533333 0 0 0-7.394134 4.270934l-4.8768 8.443733c-0.324267 0.384-0.631467 0.789333-0.891733 1.237333L82.218667 345.6c-0.068267 0.1152-0.098133 0.238933-0.157867 0.354133-0.1664 0.32-0.315733 0.64-0.443733 0.981334-0.0768 0.213333-0.136533 0.4224-0.196267 0.64a7.957333 7.957333 0 0 0-0.2944 1.706666c-0.0128 0.196267-0.059733 0.384-0.059733 0.584534v25.6c0 42.427733 22.135467 79.658667 55.466666 100.855466V891.733333a8.533333 8.533333 0 0 0 8.533334 8.533334h439.466666v-405.166934c6.929067 1.250133 14.0416 1.966933 21.333334 1.966934 7.2832 0 14.408533-0.6784 21.333333-1.924267V900.266667h243.2a8.533333 8.533333 0 0 0 8.533333-8.533334v-413.277866c33.3312-21.1968 55.466667-58.427733 55.466667-100.855467 0-0.571733-0.0256-1.1392-0.042667-1.706667 0.008533-0.145067 0.042667-0.2816 0.042667-0.426666v-25.6z m-409.6 355.2a8.533333 8.533333 0 0 1-8.533333 8.533333H243.2a8.533333 8.533333 0 0 1-8.533333-8.533333v-162.133334a8.533333 8.533333 0 0 1 8.533333-8.533333h273.066667a8.533333 8.533333 0 0 1 8.533333 8.533333v162.133334z" fill="#fff" p-id="3856"></path></svg>